<svg width="128" height="40" viewBox="0 0 128 40" fill="none" xmlns="http://www.w3.org/2000/svg">
<g id="Logo">
<g id="Chat Me">
<path d="M12.9843 28.2875C7.99231 28.2875 4.32031 24.5675 4.32031 19.5995C4.32031 14.6315 7.99231 10.9115 12.9843 10.9115C16.8723 10.9115 19.9683 13.2635 21.0243 16.7435H18.1203C17.2323 14.7755 15.3363 13.5035 12.9603 13.5035C9.52831 13.5035 7.05631 16.0955 7.05631 19.5995C7.05631 23.1035 9.52831 25.6955 12.9603 25.6955C15.3363 25.6955 17.2323 24.4235 18.1203 22.4555H21.0243C19.9683 25.9355 16.8723 28.2875 12.9843 28.2875Z" fill="white"/>
<path d="M29.8801 14.5115C32.8321 14.5115 34.6321 16.4555 34.6321 19.6715V27.9995H31.9201V20.2235C31.9201 18.1835 31.0081 17.1035 29.0161 17.1035C26.7121 17.1035 25.4641 18.6155 25.4641 21.1595V27.9995H22.7521V9.51953H25.4641V16.9595C26.4001 15.4235 27.8401 14.5115 29.8801 14.5115Z" fill="white"/>
<path d="M46.9676 14.7995H49.6796V27.9995H46.9676V25.7915C46.0076 27.3035 44.4236 28.2875 42.3596 28.2875C38.8316 28.2875 36.2636 25.4315 36.2636 21.3995C36.2636 17.3675 38.8796 14.5115 42.3356 14.5115C44.4236 14.5115 46.0076 15.5435 46.9676 17.0555V14.7995ZM42.9356 25.6955C45.2396 25.6955 46.9916 23.9435 46.9916 21.3995C46.9916 18.8795 45.2396 17.1035 42.9356 17.1035C40.6316 17.1035 38.9996 18.8795 38.9996 21.3995C38.9996 23.9435 40.6556 25.6955 42.9356 25.6955Z" fill="white"/>
<path d="M61.436 25.1195L61.916 27.3275C61.196 27.7595 59.66 28.2875 58.148 28.2875C55.436 28.2875 53.324 26.5835 53.324 22.9355V17.3435H50.876V14.7995H53.324V11.7995L56.036 11.1995V14.7995H61.46V17.3435H56.036V22.7915C56.036 24.7115 56.924 25.7675 58.628 25.7675C59.468 25.7675 60.404 25.4795 61.436 25.1195Z" fill="white"/>
<path d="M82.7789 11.1995H85.9709V27.9995H83.2589V14.8715L78.0749 22.6955H77.8109L72.6509 14.8715V27.9995H69.9389V11.1995H73.1309L77.9549 18.4475L82.7789 11.1995Z" fill="white"/>
<path d="M94.9505 14.5115C99.1985 14.5115 101.886 17.7995 101.622 22.1435H90.8945C91.1105 24.5675 92.8145 25.9115 95.0225 25.9115C96.6065 25.9115 97.9265 25.2395 98.5505 23.9435H101.358C100.326 26.8955 97.8065 28.2875 94.9985 28.2875C90.9905 28.2875 88.1345 25.4075 88.1345 21.4235C88.1345 17.4395 90.9665 14.5115 94.9505 14.5115ZM94.9505 16.8635C92.8865 16.8635 91.4945 18.1595 91.0385 19.9355H98.7185C98.3105 18.1355 96.9425 16.8635 94.9505 16.8635Z" fill="white"/>
</g>
<circle id="Ellipse 144" cx="122" cy="20" r="2" fill="white"/>
<circle id="Ellipse 145" cx="112" cy="20" r="2" fill="white"/>
</g>
</svg>
